<?xml version="1.0" standalone="no"?><!DOCTYPE svg PUBLIC "-//W3C//DTD SVG 1.1//EN" "http://www.w3.org/Graphics/SVG/1.1/DTD/svg11.dtd"><svg t="1559635995579" class="icon" style="" viewBox="0 0 1024 1024" version="1.1" xmlns="http://www.w3.org/2000/svg" p-id="3658" xmlns:xlink="http://www.w3.org/1999/xlink" width="32" height="32"><defs><style type="text/css"></style></defs><path d="M512 165.43382l90.808192 183.998641 10.714016 21.709441 23.957645 3.481288 203.053626 29.504988L693.603081 547.351136l-17.33583 16.897855 4.092201 23.860431 34.685987 202.232934-181.616384-95.481631-21.428032-11.265578-21.428032 11.265578-181.616384 95.481631 34.685987-202.232934 4.092201-23.860431-17.33583-16.897855L183.465498 404.128177l203.053626-29.504988 23.957645-3.481288 10.714016-21.709441L512 165.43382M512 61.385069 379.89731 329.052295 84.508719 371.974873l213.746152 208.350259-50.458205 294.195416 264.204357-138.900513 264.204357 138.900513-50.458205-294.195416L939.491281 371.974873l-295.389614-42.922578L512 61.385069 512 61.385069z" p-id="3659" fill="#ecc64d"></path></svg>