<?xml version="1.0" standalone="no"?><!DOCTYPE svg PUBLIC "-//W3C//DTD SVG 1.1//EN" "http://www.w3.org/Graphics/SVG/1.1/DTD/svg11.dtd"><svg t="1559634186951" class="icon" style="" viewBox="0 0 1024 1024" version="1.1" xmlns="http://www.w3.org/2000/svg" p-id="2997" xmlns:xlink="http://www.w3.org/1999/xlink" width="32" height="32"><defs><style type="text/css"></style></defs><path d="M662.5 179.025l165.123 154.066c14.133 13.187 36.28 12.42 49.468-1.714 13.187-14.133 12.42-36.28-1.714-49.468l-224-209C629.003 52.033 592.5 67.9 592.5 98.5V923c0 19.33 15.67 35 35 35s35-15.67 35-35V179.025zM352.5 841.906L187.377 687.84c-14.133-13.187-36.28-12.42-49.468 1.714-13.187 14.133-12.42 36.28 1.714 49.467l224 209c22.374 20.876 58.877 5.01 58.877-25.59V97.93c0-19.33-15.67-35-35-35s-35 15.67-35 35v743.975z" fill="#2F54EB" p-id="2998"></path></svg>